<?xml version="1.0" encoding="UTF-8"?>
<svg width="700pt" height="550pt" version="1.1" viewBox="0 0 700 550" xmlns="http://www.w3.org/2000/svg" xmlns:xlink="http://www.w3.org/1999/xlink">
 <defs>
  <symbol id="w" overflow="visible">
   <path d="m0.03125 0h-0.015625-0.015625v-0.015625-0.015625h0.015625 0.015625-0.015625v0.015625 0.015625h0.015625v-0.015625z"/>
  </symbol>
  <symbol id="e" overflow="visible">
   <path d="m0.015625-0.015625v0.015625h-0.015625v-0.03125h0.015625v0.015625-0.015625z"/>
  </symbol>
  <symbol id="b" overflow="visible">
   <path d="m0.03125-0.015625h-0.015625v0.015625c0.0078125 0 0.015625-0.0039062 0.015625-0.015625v0.015625h-0.015625-0.015625v-0.015625l0.015625-0.015625v0.015625h0.015625z"/>
  </symbol>
  <symbol id="a" overflow="visible">
   <path d="m0.015625-0.015625v0.015625-0.015625zm0.015625 0v0.015625h-0.015625-0.015625v-0.015625h0.015625-0.015625v-0.015625h0.015625v0.015625h0.015625z"/>
  </symbol>
  <symbol id="d" overflow="visible">
   <path d="m0.015625-0.03125v0.015625 0.015625h-0.015625v-0.015625-0.015625z"/>
  </symbol>
  <symbol id="l" overflow="visible">
   <path d="m0.015625-0.015625v-0.015625h0.015625v0.03125h-0.015625-0.015625v-0.015625l0.015625-0.015625v0.015625zm0 0.015625v-0.015625 0.015625z"/>
  </symbol>
  <symbol id="k" overflow="visible">
   <path d="m0.015625 0v-0.015625 0.015625zm0-0.015625v-0.015625c0.0078125 0 0.015625 0.0078125 0.015625 0.015625v0.015625h-0.015625-0.015625v-0.03125h0.015625z"/>
  </symbol>
  <symbol id="j" overflow="visible">
   <path d="m0-0.03125h0.015625v0.015625-0.015625h0.015625l-0.015625 0.03125v0.015625h-0.015625v-0.015625h0.015625z"/>
  </symbol>
  <symbol id="i" overflow="visible">
   <path d="m0.015625-0.03125v0.015625 0.015625h0.015625v-0.015625c0-0.0078125-0.0078125-0.015625-0.015625-0.015625zm0 0h0.015625v0.015625 0.015625h-0.015625-0.015625v-0.015625-0.015625h0.015625z"/>
  </symbol>
  <symbol id="v" overflow="visible">
   <path d="m0-0.03125h0.015625v0.03125h-0.015625z"/>
  </symbol>
  <symbol id="f" overflow="visible">
   <path d="m0.03125-0.015625v0.015625h-0.015625v-0.015625 0.015625h-0.015625v-0.03125h0.015625v0.015625-0.015625c0.0078125 0 0.015625 0.0078125 0.015625 0.015625z"/>
  </symbol>
  <symbol id="h" overflow="visible">
   <path d="m0-0.03125h0.015625 0.015625v0.015625h-0.015625v0.015625h-0.015625zm0.015625 0v0.015625-0.015625z"/>
  </symbol>
  <symbol id="g" overflow="visible">
   <path d="m0.03125-0.03125v0.015625h-0.015625c0.0078125 0 0.015625 0.0078125 0.015625 0.015625h-0.015625-0.015625 0.015625v-0.015625h-0.015625l0.015625-0.015625h0.015625z"/>
  </symbol>
  <symbol id="c" overflow="visible">
   <path d="m0.015625-0.015625v0.015625-0.015625zm0-0.015625v0.015625h0.015625c0 0.011719-0.0078125 0.015625-0.015625 0.015625h-0.015625v-0.015625l0.015625-0.015625z"/>
  </symbol>
  <symbol id="u" overflow="visible">
   <path d="m0-0.03125h0.015625v0.015625-0.015625h0.015625l-0.015625 0.03125z"/>
  </symbol>
  <symbol id="t" overflow="visible">
   <path d="m0-0.03125h0.015625v0.015625-0.015625h0.015625l-0.015625 0.015625 0.015625 0.015625h-0.015625v-0.015625 0.015625h-0.015625z"/>
  </symbol>
  <symbol id="s" overflow="visible">
   <path d="m0.015625-0.03125v0.03125h-0.015625v-0.03125h0.015625z"/>
  </symbol>
  <symbol id="r" overflow="visible">
   <path d="m0.03125-0.015625v-0.015625c0.0078125 0 0.015625 0.0078125 0.015625 0.015625v0.015625h-0.015625v-0.015625 0.015625h-0.015625v-0.015625 0.015625h-0.015625v-0.03125h0.015625v0.015625-0.015625 0.015625h0.015625z"/>
  </symbol>
  <symbol id="q" overflow="visible">
   <path d="m0.03125-0.015625v0.015625h-0.015625v-0.015625 0.015625h-0.015625v-0.03125h0.015625v0.015625-0.015625c0.0078125 0 0.015625 0.0078125 0.015625 0.015625z"/>
  </symbol>
  <symbol id="p" overflow="visible">
   <path d="m0-0.03125h0.015625l0.015625 0.015625v-0.015625 0.03125l-0.015625-0.015625v0.015625h-0.015625z"/>
  </symbol>
  <symbol id="o" overflow="visible">
   <path d="m0-0.015625v-0.015625h0.015625v0.015625 0.015625-0.015625-0.015625h0.015625v0.03125h-0.015625-0.015625v-0.015625z"/>
  </symbol>
  <symbol id="n" overflow="visible">
   <path d="m0-0.03125h0.015625v0.03125h-0.015625v0.015625zm0 0h0.015625z"/>
  </symbol>
  <symbol id="m" overflow="visible">
   <path d="m0.03125-0.03125v0.015625h-0.015625v0.015625h0.015625-0.015625-0.015625v-0.015625l0.015625-0.015625h0.015625z"/>
  </symbol>
 </defs>
 <g>
  <path d="m358.05 42.848c4.8984 0 9.5742 1.082 13.793 3.0156 4.3672 2.0078 8.2227 4.9297 11.32 8.5195l0.007812-0.007812c2.5391 2.9492 4.5742 6.3672 5.9531 10.09 1.3359 3.5938 2.0625 7.4766 2.0625 11.516 0 9.1484-3.707 17.434-9.707 23.426-6 6-14.281 9.707-23.426 9.707-9.1484 0-17.434-3.707-23.426-9.707-6-6-9.707-14.281-9.707-23.426 0-3.2305 0.47656-6.375 1.3516-9.3711 0.89453-3.0508 2.2383-5.9375 3.9492-8.5859 3.0039-4.6484 7.1406-8.5039 12.004-11.152 4.7227-2.5742 10.117-4.0312 15.828-4.0312zm124.55 100.55c-0.19531-1.3359 0.71875-2.5742 2.0547-2.7812 1.3359-0.19531 2.5742 0.71875 2.7812 2.0547 0.625 4.0977 1.7266 6.7188 3.5078 8.3984 1.7812 1.6992 4.4414 2.6211 8.1211 3.2656 1.3242 0.23438 2.2227 1.4922 1.9883 2.8281-0.23438 1.3242-1.4922 2.2227-2.8281 1.9883-4.6094-0.8125-8.0469-2.082-10.641-4.5469-2.6055-2.4727-4.1719-5.9727-4.9766-11.211zm58.117 133.93c0.79297-1.082 2.3242-1.3242 3.4062-0.52344 1.082 0.79297 1.3242 2.3242 0.52344 3.4062-2.4531 3.3398-3.5273 5.9844-3.4727 8.4375 0.066406 2.4648 1.2891 5.0039 3.4336 8.0625 0.76562 1.1016 0.50391 2.6211-0.59766 3.3867-1.1016 0.76562-2.6211 0.50391-3.3867-0.59766-2.6797-3.8359-4.2188-7.1602-4.3125-10.734-0.09375-3.5938 1.2773-7.168 4.4062-11.434zm-53.602 135.79c1.3359-0.19531 2.5742 0.71875 2.7812 2.0547 0.19531 1.3359-0.71875 2.5742-2.0547 2.7812-4.0977 0.625-6.7188 1.7266-8.3984 3.5078-1.6992 1.7812-2.6211 4.4414-3.2656 8.1211-0.23438 1.3242-1.4922 2.2227-2.8281 1.9883-1.3242-0.23437-2.2227-1.4922-1.9883-2.8281 0.8125-4.6094 2.082-8.0469 4.5469-10.641 2.4727-2.6055 5.9844-4.1719 11.211-4.9766zm-133.93 58.117c1.082 0.79297 1.3242 2.3242 0.52344 3.4062-0.79297 1.082-2.3242 1.3242-3.4062 0.52344-3.3398-2.4531-5.9844-3.5273-8.4375-3.4727-2.4648 0.066406-5.0039 1.2891-8.0625 3.4336-1.1016 0.76562-2.6211 0.50391-3.3867-0.59766-0.76562-1.1016-0.50391-2.6211 0.59766-3.3867 3.8359-2.6797 7.1602-4.2188 10.734-4.3125 3.5938-0.09375 7.168 1.2773 11.434 4.4062zm-135.79-53.602c0.19531 1.3359-0.71875 2.5742-2.0547 2.7812-1.3359 0.19531-2.5742-0.71875-2.7812-2.0547-0.625-4.0977-1.7266-6.7188-3.5078-8.3984-1.7812-1.6992-4.4414-2.6211-8.1211-3.2656-1.3242-0.23437-2.2227-1.4922-1.9883-2.8281 0.23438-1.3242 1.4922-2.2227 2.8281-1.9883 4.6094 0.8125 8.0469 2.082 10.641 4.5469 2.6055 2.4727 4.1719 5.9844 4.9766 11.211zm-58.117-133.93c-0.79297 1.082-2.3242 1.3242-3.4062 0.52344-1.082-0.79297-1.3242-2.3242-0.52344-3.4062 2.4531-3.3398 3.5273-5.9844 3.4727-8.4375-0.066406-2.4648-1.2891-5.0039-3.4336-8.0625-0.76562-1.1016-0.50391-2.6211 0.59766-3.3867 1.1016-0.76563 2.6211-0.50391 3.3867 0.59766 2.6797 3.8359 4.2188 7.1602 4.3125 10.734 0.09375 3.5938-1.2773 7.168-4.4062 11.434zm53.602-135.79c-1.3359 0.19531-2.5742-0.71875-2.7812-2.0547-0.19531-1.3359 0.71875-2.5742 2.0547-2.7812 4.0977-0.625 6.7188-1.7266 8.3984-3.5078 1.6992-1.7812 2.6211-4.4414 3.2656-8.1211 0.23438-1.3242 1.4922-2.2227 2.8281-1.9883 1.3242 0.23438 2.2227 1.4922 1.9883 2.8281-0.8125 4.6094-2.082 8.0469-4.5469 10.641-2.4727 2.6055-5.9844 4.1719-11.211 4.9766zm133.93-58.117c-1.082-0.79297-1.3242-2.3242-0.52344-3.4062 0.79297-1.082 2.3242-1.3242 3.4062-0.52344 3.3398 2.4531 5.9844 3.5273 8.4375 3.4727 2.4648-0.066407 5.0039-1.2891 8.0625-3.4336 1.1016-0.76562 2.6211-0.50391 3.3867 0.59766s0.50391 2.6211-0.59766 3.3867c-3.8359 2.6797-7.1602 4.2188-10.734 4.3125-3.5938 0.09375-7.168-1.2773-11.434-4.4062zm176.57 28.207c3.4805 3.4805 6.0312 7.5508 7.6328 11.891 1.6719 4.5 2.3242 9.2852 1.9688 14.027-0.28906 3.8633-1.2695 7.7109-2.9297 11.332-1.6055 3.5078-3.8359 6.7656-6.6836 9.6133-6.4688 6.4688-14.953 9.707-23.426 9.707-8.4844 0-16.957-3.2383-23.426-9.707s-9.707-14.953-9.707-23.426c0-8.4844 3.2383-16.957 9.707-23.426 2.2773-2.2773 4.8359-4.1641 7.5898-5.6641 2.8281-1.5391 5.8164-2.6406 8.875-3.293 5.3945-1.1562 11.031-0.95313 16.363 0.61719 5.1523 1.5195 9.9961 4.3008 14.047 8.3438zm0.30859 14.605c-1.2305-3.3125-3.1719-6.4102-5.832-9.082-3.1094-3.1094-6.8047-5.2344-10.715-6.3945-4.0703-1.2031-8.3906-1.3516-12.543-0.46484-2.3516 0.50391-4.6289 1.3359-6.7656 2.5-2.0547 1.1211-3.9961 2.5664-5.7852 4.3477-4.9453 4.9453-7.4102 11.426-7.4102 17.902 0 6.4766 2.4727 12.953 7.4102 17.902 4.9453 4.9453 11.426 7.4102 17.902 7.4102 6.4766 0 12.953-2.4727 17.902-7.4102 2.2109-2.2109 3.9219-4.6953 5.125-7.3281 1.2617-2.7422 1.9961-5.6836 2.2227-8.6719 0.26953-3.6133-0.23438-7.2812-1.5117-10.723zm-60.723 87.406c-0.027344 0.14062-0.066406 0.28125-0.11328 0.42188-0.11328 0.32812-0.24219 0.59766-0.42969 0.88672-0.34375 0.53125-0.82031 0.98828-1.418 1.3086l-42.41 22.84c-0.085937 0.046875-0.16016 0.085938-0.24219 0.12109-2.6055 1.3984-3.6875 2.7422-3.7422 3.7812-0.007813 0.17578 0.027343 0.33594 0.10156 0.46484 0.11328 0.1875 0.28125 0.33594 0.50391 0.44922 0.98828 0.50391 2.6055 0.36328 4.5-0.89453 0.23438-0.14844 0.46484-0.28125 0.71875-0.375l32.098-13.672c23.699-10.098 30.883-23.68 40.75-45.965-4.0508-0.72656-8.2031-1.9805-12.246-3.8086-5.3281-2.4062-10.473-5.8047-14.934-10.277-4.7227-4.7227-8.25-10.203-10.594-16.055-1.6992-4.2383-2.7617-8.6719-3.1914-13.16l-22.016 8.9805-0.64453 53.379 31.742-5.8984c2.1172-0.39062 4.1445 1.0156 4.5352 3.125 0.10156 0.54297 0.085938 1.0742-0.039062 1.5664l-2.9297 12.785zm-48.074 18.582 40.852-22 1.2148-5.3203-30.566 5.6836c-0.24219 0.046875-0.49609 0.066407-0.74609 0.066407-2.1484-0.027344-3.875-1.793-3.8438-3.9375l0.72656-60.426c-0.10156-1.6328 0.83203-3.2188 2.4375-3.875l29.566-12.059v0.007813c0.47656-0.19531 1.0078-0.29688 1.5586-0.28125 2.1484 0.046875 3.8555 1.8398 3.7969 3.9844-0.12891 5.3867 0.82031 10.797 2.8555 15.887 1.9492 4.8711 4.9102 9.4531 8.8867 13.43 3.7812 3.7812 8.1211 6.6562 12.609 8.6797 4.9922 2.2578 10.156 3.4922 14.961 3.7969 0.4375 0.027343 0.88672 0.12891 1.3164 0.31641 1.9805 0.85938 2.875 3.1562 2.0156 5.1328l-0.039062 0.074218c-11.809 26.926-18.75 42.746-46.91 54.75l-31.883 13.578c-4.4258 2.7891-8.8672 2.7422-12.031 1.1211-1.5508-0.79297-2.8086-1.9492-3.6484-3.3516-0.87891-1.457-1.3164-3.1445-1.2031-4.957 0.21484-3.4727 2.5117-7.3086 7.8867-10.203 0.066406-0.039062 0.12891-0.074218 0.19531-0.11328zm172.26 49.457c0 4.8984-1.082 9.5742-3.0156 13.793-2.0078 4.3672-4.9297 8.2227-8.5195 11.32l0.007812 0.007813c-2.9492 2.5391-6.3672 4.5742-10.09 5.9531-3.5938 1.3359-7.4766 2.0625-11.516 2.0625-9.1484 0-17.434-3.707-23.426-9.707-6-6-9.707-14.281-9.707-23.426 0-9.1484 3.707-17.434 9.707-23.426 6-6 14.281-9.707 23.426-9.707 3.2305 0 6.375 0.47656 9.3711 1.3516 3.0508 0.89453 5.9375 2.2383 8.5859 3.9492 4.6484 3.0039 8.5039 7.1406 11.152 12.004 2.5742 4.7227 4.0312 10.117 4.0312 15.828zm-10.109 10.555c1.4648-3.1914 2.2852-6.7656 2.2852-10.555 0-4.4062-1.1094-8.5195-3.0508-12.098-2.0352-3.7422-4.9766-6.9062-8.5195-9.1914-1.9883-1.2891-4.1992-2.3047-6.5703-3.0039-2.25-0.66406-4.6562-1.0156-7.168-1.0156-6.9922 0-13.32 2.8359-17.902 7.4102-4.582 4.582-7.4102 10.91-7.4102 17.902 0 6.9922 2.8359 13.32 7.4102 17.902 4.582 4.582 10.91 7.4102 17.902 7.4102 3.0977 0 6.0664-0.55078 8.8008-1.5664 2.8477-1.0547 5.4492-2.6055 7.6992-4.5469l0.007812 0.007813 0.007812-0.007813c2.7539-2.3711 4.9844-5.3125 6.5156-8.6445zm-104.61 18.762c-0.94141 0.67187-2.1758 0.91406-3.3711 0.55859l-46.145-13.84-0.12109-0.039063c-2.9219-0.90625-4.6836-0.71875-5.4688-0.027344-0.12891 0.11328-0.21484 0.25391-0.24219 0.39062-0.046875 0.20703-0.039063 0.4375 0.046875 0.69141 0.33594 1.0547 1.5781 2.1016 3.7891 2.5469 0.24219 0.046874 0.46484 0.11328 0.67969 0.20703v-0.007813l32.461 13.066c23.895 9.6133 38.586 5.0977 61.32-3.6953-2.3516-3.3789-4.3945-7.207-5.9531-11.359-2.0625-5.4805-3.293-11.508-3.293-17.816 0-6.6719 1.3711-13.047 3.8555-18.836 1.8008-4.2109 4.1914-8.1016 7.0547-11.582l-21.906-9.2109-38.203 37.297 26.602 18.258c1.7812 1.2148 2.2383 3.6406 1.0273 5.4219-0.34375 0.51172-0.79297 0.90625-1.2969 1.1953l-10.816 6.7852zm-47.281-20.766 44.465 13.336 4.6094-2.8945-25.609-17.586c-0.21484-0.14062-0.41016-0.30859-0.59766-0.50391-1.5039-1.5391-1.4648-4.0117 0.074218-5.5156l43.457-42.422c1.0938-1.0547 2.7422-1.418 4.2266-0.79297l29.23 12.301c0.55859 0.19531 1.0742 0.52344 1.5117 0.98828 1.4844 1.5586 1.418 4.0312-0.14063 5.5156-3.9023 3.7148-7.0547 8.2148-9.2109 13.234-2.0703 4.8359-3.2188 10.164-3.2188 15.781 0 5.3555 1.0352 10.453 2.7812 15.062 1.9219 5.1055 4.7148 9.6328 7.8945 13.254 0.28906 0.33594 0.53125 0.71875 0.71094 1.1562 0.78516 2.0078-0.20703 4.2734-2.2109 5.0586l-0.074218 0.027343c-27.383 10.688-43.477 16.969-71.875 5.5352l-32.191-12.953c-5.0859-1.168-8.1836-4.3398-9.2695-7.7109-0.53125-1.6445-0.59766-3.3398-0.19531-4.9375 0.41016-1.6523 1.2969-3.1641 2.6602-4.3594 2.6328-2.3242 7.0273-3.4141 12.938-1.5977l0.054687 0.019531zm86.836 156.78c-3.4805 3.4805-7.5508 6.0312-11.891 7.6328-4.5 1.6719-9.2852 2.3242-14.027 1.9688-3.8633-0.28906-7.7109-1.2695-11.332-2.9297-3.5078-1.6055-6.7656-3.8359-9.6133-6.6836-6.4688-6.4688-9.707-14.953-9.707-23.426 0-8.4844 3.2383-16.957 9.707-23.426s14.953-9.707 23.426-9.707c8.4844 0 16.957 3.2383 23.426 9.707 2.2773 2.2773 4.1641 4.8359 5.6641 7.5898 1.5391 2.8281 2.6406 5.8164 3.293 8.875 1.1562 5.3945 0.95312 11.031-0.61719 16.363-1.5195 5.1523-4.3008 9.9961-8.3438 14.047zm-14.605 0.30859c3.3125-1.2305 6.4102-3.1719 9.082-5.832 3.1094-3.1094 5.2344-6.8047 6.3945-10.715 1.2031-4.0703 1.3516-8.3906 0.46484-12.543-0.50391-2.3516-1.3359-4.6289-2.5-6.7656-1.1211-2.0547-2.5664-3.9961-4.3477-5.7852-4.9453-4.9453-11.426-7.4102-17.902-7.4102s-12.953 2.4727-17.902 7.4102c-4.9453 4.9453-7.4102 11.426-7.4102 17.902s2.4727 12.953 7.4102 17.902c2.2109 2.2109 4.6953 3.9219 7.3281 5.125 2.7422 1.2617 5.6836 1.9961 8.6719 2.2227 3.6133 0.26953 7.2812-0.23438 10.723-1.5117zm-87.406-60.723c-0.14062-0.027344-0.28125-0.066406-0.42188-0.11328-0.32812-0.11328-0.59766-0.24219-0.88672-0.42969-0.53125-0.34375-0.98828-0.82031-1.3086-1.418l-22.84-42.41c-0.046876-0.085937-0.085938-0.16016-0.12109-0.24219-1.3984-2.6055-2.7422-3.6875-3.7812-3.7422-0.17578-0.007812-0.33594 0.027344-0.46484 0.10156-0.1875 0.11328-0.33594 0.28125-0.44922 0.50391-0.50391 0.98828-0.36328 2.6055 0.89453 4.5 0.14844 0.23438 0.28125 0.46484 0.375 0.71875l13.672 32.098c10.098 23.699 23.68 30.883 45.965 40.75 0.72656-4.0508 1.9805-8.2031 3.8086-12.246 2.4062-5.3281 5.8047-10.473 10.277-14.934 4.7227-4.7227 10.203-8.25 16.055-10.594 4.2383-1.6992 8.6719-2.7617 13.16-3.1914l-8.9805-22.016-53.379-0.64453 5.8984 31.742c0.39062 2.1172-1.0156 4.1445-3.125 4.5352-0.54297 0.10156-1.0742 0.085938-1.5664-0.039062l-12.785-2.9297zm-18.582-48.074 22 40.852 5.3203 1.2148-5.6836-30.566c-0.046875-0.24219-0.066406-0.49609-0.066406-0.74609 0.027344-2.1484 1.793-3.875 3.9375-3.8438l60.426 0.72656c1.6328-0.10156 3.2188 0.83203 3.875 2.4375l12.059 29.566h-0.007813c0.19531 0.47656 0.29688 1.0078 0.28125 1.5586-0.046874 2.1484-1.8398 3.8555-3.9844 3.7969-5.3867-0.12891-10.797 0.82031-15.887 2.8555-4.8711 1.9492-9.4531 4.9102-13.43 8.8867-3.7812 3.7812-6.6562 8.1211-8.6797 12.609-2.2578 4.9922-3.4922 10.156-3.7969 14.961-0.027344 0.4375-0.12891 0.88672-0.31641 1.3164-0.85937 1.9688-3.1562 2.875-5.1328 2.0156l-0.074219-0.039062c-26.926-11.809-42.746-18.75-54.75-46.91l-13.578-31.883c-2.7891-4.4258-2.7422-8.8672-1.1211-12.031 0.79297-1.5508 1.9492-2.8086 3.3516-3.6484 1.457-0.87891 3.1445-1.3164 4.957-1.2031 3.4727 0.21484 7.3086 2.5117 10.203 7.8867 0.039063 0.066407 0.074219 0.12891 0.11328 0.19531zm-49.457 172.26c-4.8984 0-9.5742-1.082-13.793-3.0156-4.3672-2.0078-8.2227-4.9297-11.32-8.5195l-0.007813 0.007812c-2.5391-2.9492-4.5742-6.3672-5.9531-10.09-1.3359-3.5938-2.0625-7.4766-2.0625-11.516 0-9.1484 3.707-17.434 9.707-23.426 6-6 14.281-9.707 23.426-9.707 9.1484 0 17.434 3.707 23.426 9.707 6 5.9922 9.707 14.281 9.707 23.426 0 3.2305-0.47656 6.375-1.3516 9.3711-0.89453 3.0508-2.2383 5.9375-3.9492 8.5859-3.0039 4.6484-7.1406 8.5039-12.004 11.152-4.7227 2.5742-10.117 4.0312-15.828 4.0312zm-10.555-10.109c3.1914 1.4648 6.7656 2.2852 10.555 2.2852 4.4062 0 8.5195-1.1094 12.098-3.0508 3.7422-2.0352 6.9062-4.9766 9.1914-8.5195 1.2891-1.9883 2.3047-4.1992 3.0039-6.5703 0.66406-2.25 1.0156-4.6562 1.0156-7.168 0-6.9922-2.8359-13.32-7.4102-17.902-4.582-4.582-10.91-7.4102-17.902-7.4102s-13.32 2.8359-17.902 7.4102c-4.582 4.582-7.4102 10.91-7.4102 17.902 0 3.0977 0.55078 6.0664 1.5664 8.8008 1.0547 2.8477 2.6055 5.4492 4.5469 7.6992l-0.007812 0.007813 0.007812 0.007812c2.3711 2.7539 5.3125 4.9844 8.6445 6.5156zm-18.762-104.61c-0.67188-0.94141-0.91406-2.1758-0.55859-3.3711l13.84-46.145 0.039062-0.12109c0.90625-2.9219 0.71875-4.6836 0.027344-5.4688-0.11328-0.12891-0.25391-0.21484-0.39062-0.24219-0.20703-0.046876-0.4375-0.039063-0.69141 0.046874-1.0547 0.33594-2.1016 1.5781-2.5469 3.7891-0.046875 0.24219-0.11328 0.46484-0.20703 0.67969h0.007812l-13.066 32.461c-9.6133 23.895-5.0977 38.586 3.6953 61.32 3.3789-2.3516 7.207-4.3945 11.359-5.9531 5.4805-2.0625 11.508-3.293 17.816-3.293 6.6719 0 13.047 1.3711 18.836 3.8555 4.2109 1.8008 8.1016 4.1914 11.582 7.0547l9.2109-21.906-37.297-38.203-18.258 26.602c-1.2148 1.7812-3.6406 2.2383-5.4219 1.0273-0.51172-0.34375-0.90625-0.79297-1.1953-1.2969l-6.7852-10.816zm20.766-47.281-13.336 44.465 2.8945 4.6094 17.586-25.609c0.14062-0.21484 0.30859-0.41016 0.50391-0.59766 1.5391-1.5039 4.0117-1.4648 5.5156 0.074219l42.422 43.457c1.0547 1.0938 1.418 2.7422 0.79297 4.2266l-12.301 29.23c-0.19531 0.55859-0.52344 1.0742-0.98828 1.5117-1.5586 1.4844-4.0312 1.418-5.5156-0.14062-3.7148-3.9023-8.2148-7.0547-13.234-9.2109-4.8359-2.0703-10.164-3.2188-15.781-3.2188-5.3555 0-10.453 1.0352-15.062 2.7812-5.1055 1.9219-9.6328 4.7148-13.254 7.8945-0.33594 0.28906-0.71875 0.53125-1.1562 0.71094-2.0078 0.78516-4.2734-0.20703-5.0586-2.2109l-0.027344-0.074219c-10.688-27.383-16.969-43.477-5.5352-71.875l12.953-32.191c1.168-5.0859 4.3398-8.1836 7.7109-9.2695 1.6445-0.53125 3.3398-0.59766 4.9375-0.19531 1.6523 0.41016 3.1641 1.2969 4.3594 2.6602 2.3242 2.6328 3.4141 7.0273 1.5977 12.938l-0.019531 0.054687zm-156.78 86.836c-3.4805-3.4805-6.0312-7.5508-7.6328-11.891-1.6719-4.5-2.3242-9.2852-1.9688-14.027 0.28906-3.8633 1.2695-7.7109 2.9297-11.332 1.6055-3.5078 3.8359-6.7656 6.6836-9.6133 6.4688-6.4688 14.953-9.707 23.426-9.707 8.4844 0 16.957 3.2383 23.426 9.707s9.707 14.953 9.707 23.426c0 8.4844-3.2383 16.957-9.707 23.426-2.2773 2.2773-4.8359 4.1641-7.5898 5.6641-2.8281 1.5391-5.8164 2.6406-8.875 3.293-5.3945 1.1562-11.031 0.95312-16.363-0.61719-5.1523-1.5195-9.9961-4.3008-14.047-8.3438zm-0.30859-14.605c1.2305 3.3125 3.1719 6.4102 5.832 9.082 3.1094 3.1094 6.8047 5.2344 10.715 6.3945 4.0703 1.2031 8.3906 1.3516 12.543 0.46484 2.3516-0.50391 4.6289-1.3359 6.7656-2.5 2.0547-1.1211 3.9961-2.5664 5.7852-4.3477 4.9453-4.9453 7.4102-11.426 7.4102-17.902 0-6.4766-2.4727-12.953-7.4102-17.902-4.9453-4.9453-11.426-7.4102-17.902-7.4102-6.4766 0-12.953 2.4727-17.902 7.4102-2.2109 2.2109-3.9219 4.6953-5.125 7.3281-1.2617 2.7422-1.9961 5.6836-2.2227 8.6719-0.26953 3.6133 0.23438 7.2812 1.5117 10.723zm60.723-87.406c0.027343-0.14062 0.066406-0.28125 0.11328-0.42187 0.11328-0.32813 0.24219-0.59766 0.42969-0.88672 0.34375-0.53125 0.82031-0.98828 1.418-1.3086l42.41-22.84c0.085938-0.046875 0.16016-0.085937 0.24219-0.12109 2.6055-1.3984 3.6875-2.7422 3.7422-3.7812 0.007813-0.17578-0.027344-0.33594-0.10156-0.46484-0.11328-0.1875-0.28125-0.33594-0.50391-0.44922-0.98828-0.50391-2.6055-0.36328-4.5 0.89453-0.23438 0.14844-0.46484 0.28125-0.71875 0.375l-32.098 13.672c-23.699 10.098-30.883 23.668-40.75 45.965 4.0508 0.72656 8.2031 1.9805 12.246 3.8086 5.3281 2.4062 10.473 5.8047 14.934 10.277 4.7227 4.7227 8.25 10.203 10.594 16.055 1.6992 4.2383 2.7617 8.6719 3.1914 13.16l22.016-8.9805 0.64453-53.379-31.742 5.8984c-2.1172 0.39062-4.1445-1.0156-4.5352-3.125-0.10156-0.54297-0.085938-1.0742 0.039062-1.5664l2.9297-12.785zm48.074-18.582-40.852 22-1.2148 5.3203 30.566-5.6836c0.24219-0.046875 0.49609-0.066406 0.74609-0.066406 2.1484 0.027344 3.875 1.793 3.8438 3.9375l-0.72656 60.426c0.10156 1.6328-0.83203 3.2188-2.4375 3.875l-29.566 12.059v-0.007813c-0.47656 0.19531-1.0078 0.29688-1.5586 0.28125-2.1484-0.046875-3.8555-1.8398-3.7969-3.9844 0.12891-5.3867-0.82031-10.797-2.8555-15.887-1.9492-4.8711-4.9102-9.4531-8.8867-13.43-3.7812-3.7812-8.1211-6.6562-12.609-8.6797-4.9922-2.2578-10.156-3.4922-14.961-3.7969-0.4375-0.027343-0.88672-0.12891-1.3164-0.31641-1.9688-0.85938-2.875-3.1562-2.0156-5.1328l0.039063-0.074219c11.809-26.926 18.75-42.746 46.91-54.75l31.883-13.578c4.4258-2.7891 8.8672-2.7422 12.031-1.1211 1.5508 0.79297 2.8086 1.9492 3.6484 3.3516 0.87891 1.457 1.3164 3.1445 1.2031 4.957-0.21484 3.4727-2.5117 7.3086-7.8867 10.203-0.066406 0.039063-0.12891 0.074219-0.19531 0.11328zm-172.26-49.457c0-4.8984 1.082-9.5742 3.0156-13.793 2.0078-4.3672 4.9297-8.2227 8.5195-11.32l-0.007812-0.007813c2.9492-2.5391 6.3672-4.5742 10.09-5.9531 3.5938-1.3359 7.4766-2.0625 11.516-2.0625 9.1484 0 17.434 3.707 23.426 9.707 6 6 9.707 14.281 9.707 23.426 0 9.1484-3.707 17.434-9.707 23.426-5.9922 6-14.281 9.707-23.426 9.707-3.2305 0-6.375-0.47656-9.3711-1.3516-3.0508-0.89453-5.9375-2.2383-8.5859-3.9492-4.6484-3.0039-8.5039-7.1406-11.152-12.004-2.5742-4.7227-4.0312-10.117-4.0312-15.828zm10.109-10.555c-1.4648 3.1914-2.2852 6.7656-2.2852 10.555 0 4.4062 1.1094 8.5195 3.0508 12.098 2.0352 3.7422 4.9766 6.9062 8.5195 9.1914 1.9883 1.2891 4.1992 2.3047 6.5703 3.0039 2.25 0.66406 4.6562 1.0156 7.168 1.0156 6.9922 0 13.32-2.8359 17.902-7.4102 4.582-4.582 7.4102-10.91 7.4102-17.902 0-6.9922-2.8359-13.32-7.4102-17.902-4.582-4.582-10.91-7.4102-17.902-7.4102-3.0977 0-6.0664 0.55078-8.8008 1.5664-2.8477 1.0547-5.4492 2.6055-7.6992 4.5469l-0.007812-0.007813-0.007813 0.007813c-2.7539 2.3711-4.9844 5.3125-6.5156 8.6445zm104.61-18.762c0.94141-0.67188 2.1758-0.91406 3.3711-0.55859l46.145 13.84 0.12109 0.039062c2.9219 0.90625 4.6836 0.71875 5.4688 0.027344 0.12891-0.11328 0.21484-0.25391 0.24219-0.39062 0.046875-0.20703 0.039062-0.4375-0.046875-0.69141-0.33594-1.0547-1.5781-2.1016-3.7891-2.5469-0.24219-0.046875-0.46484-0.11328-0.67969-0.20703v0.007813l-32.461-13.066c-23.895-9.6133-38.586-5.0977-61.32 3.6953 2.3516 3.3789 4.3945 7.207 5.9531 11.359 2.0625 5.4805 3.293 11.508 3.293 17.816 0 6.6719-1.3711 13.047-3.8555 18.836-1.8008 4.2109-4.1914 8.1016-7.0547 11.582l21.906 9.2109 38.203-37.297-26.602-18.258c-1.7812-1.2148-2.2383-3.6406-1.0273-5.4219 0.34375-0.51172 0.79297-0.90625 1.2969-1.1953l10.816-6.7852zm47.281 20.766-44.465-13.336-4.6094 2.8945 25.609 17.586c0.21484 0.14062 0.41016 0.30859 0.59766 0.50391 1.5039 1.5391 1.4648 4.0117-0.074218 5.5156l-43.457 42.422c-1.0938 1.0547-2.7422 1.418-4.2266 0.79297l-29.23-12.301c-0.55859-0.19531-1.0742-0.52344-1.5117-0.98828-1.4844-1.5586-1.418-4.0312 0.14062-5.5156 3.9023-3.7148 7.0547-8.2148 9.2109-13.234 2.0703-4.8359 3.2188-10.164 3.2188-15.781 0-5.3555-1.0352-10.453-2.7812-15.062-1.9219-5.1055-4.7148-9.6328-7.8945-13.254-0.28906-0.33594-0.53125-0.71875-0.71094-1.1562-0.78516-2.0078 0.20703-4.2734 2.2109-5.0586l0.074218-0.027343c27.383-10.688 43.477-16.969 71.875-5.5352l32.191 12.953c5.0859 1.168 8.1836 4.3398 9.2695 7.7109 0.53125 1.6445 0.59766 3.3398 0.19531 4.9375-0.41016 1.6523-1.2969 3.1641-2.6602 4.3594-2.6328 2.3242-7.0273 3.4141-12.938 1.5977l-0.054688-0.019531zm-86.836-156.78c3.4805-3.4805 7.5508-6.0312 11.891-7.6328 4.5-1.6719 9.2852-2.3242 14.027-1.9688 3.8633 0.28906 7.7109 1.2695 11.332 2.9297 3.5078 1.6055 6.7656 3.8359 9.6133 6.6836 6.4688 6.4688 9.707 14.953 9.707 23.426 0 8.4844-3.2383 16.957-9.707 23.426s-14.953 9.707-23.426 9.707c-8.4844 0-16.957-3.2383-23.426-9.707-2.2773-2.2773-4.1641-4.8359-5.6641-7.5898-1.5391-2.8281-2.6406-5.8164-3.293-8.875-1.1562-5.3945-0.95312-11.031 0.61719-16.363 1.5195-5.1523 4.3008-9.9961 8.3438-14.047zm14.605-0.30859c-3.3125 1.2305-6.4102 3.1719-9.082 5.832-3.1094 3.1094-5.2344 6.8047-6.3945 10.715-1.2031 4.0703-1.3516 8.3906-0.46484 12.543 0.50391 2.3516 1.3359 4.6289 2.5 6.7656 1.1211 2.0547 2.5664 3.9961 4.3477 5.7852 4.9453 4.9453 11.426 7.4102 17.902 7.4102 6.4766 0 12.953-2.4727 17.902-7.4102 4.9453-4.9453 7.4102-11.426 7.4102-17.902 0-6.4766-2.4727-12.953-7.4102-17.902-2.2109-2.2109-4.6953-3.9219-7.3281-5.125-2.7422-1.2617-5.6836-1.9961-8.6719-2.2227-3.6133-0.26953-7.2812 0.23438-10.723 1.5117zm87.406 60.723c0.14062 0.027344 0.28125 0.066407 0.42188 0.11328 0.32812 0.11328 0.59766 0.24219 0.88672 0.42969 0.53125 0.34375 0.98828 0.82031 1.3086 1.418l22.84 42.41c0.046875 0.085937 0.085938 0.16016 0.12109 0.24219 1.3984 2.6055 2.7422 3.6875 3.7812 3.7422 0.17578 0.007812 0.33594-0.027344 0.46484-0.10156 0.1875-0.11328 0.33594-0.28125 0.44922-0.50391 0.50391-0.98828 0.36328-2.6055-0.89453-4.5-0.14844-0.23438-0.28125-0.46484-0.375-0.71875l-13.672-32.098c-10.098-23.699-23.668-30.883-45.965-40.75-0.72656 4.0508-1.9805 8.2031-3.8086 12.246-2.4062 5.3281-5.8047 10.473-10.277 14.934-4.7227 4.7227-10.203 8.25-16.055 10.594-4.2383 1.6992-8.6719 2.7617-13.16 3.1914l8.9805 22.016 53.379 0.64453-5.8984-31.742c-0.39062-2.1172 1.0156-4.1445 3.125-4.5352 0.54297-0.10156 1.0742-0.085937 1.5664 0.039063l12.785 2.9297zm18.582 48.074-22-40.852-5.3203-1.2148 5.6836 30.566c0.046874 0.24219 0.066406 0.49609 0.066406 0.74609-0.027344 2.1484-1.793 3.875-3.9375 3.8438l-60.426-0.72656c-1.6328 0.10156-3.2188-0.83203-3.875-2.4375l-12.059-29.566h0.007812c-0.19531-0.47656-0.29688-1.0078-0.28125-1.5586 0.046875-2.1484 1.8398-3.8555 3.9844-3.7969 5.3867 0.12891 10.797-0.82031 15.887-2.8555 4.8711-1.9492 9.4531-4.9102 13.43-8.8867 3.7812-3.7812 6.6562-8.1211 8.6797-12.609 2.2578-4.9922 3.4922-10.156 3.7969-14.961 0.027344-0.4375 0.12891-0.88672 0.31641-1.3164 0.85938-1.9805 3.1562-2.875 5.1328-2.0156l0.074218 0.039063c26.926 11.809 42.746 18.75 54.75 46.91l13.578 31.883c2.7891 4.4258 2.7422 8.8672 1.1211 12.031-0.79297 1.5508-1.9492 2.8086-3.3516 3.6484-1.457 0.87891-3.1445 1.3164-4.957 1.2031-3.4727-0.21484-7.3086-2.5117-10.203-7.8867-0.039062-0.066406-0.074218-0.12891-0.11328-0.19531zm60.012-162.15c-3.1914-1.4648-6.7656-2.2852-10.555-2.2852-4.4062 0-8.5195 1.1094-12.098 3.0508-3.7422 2.0352-6.9062 4.9766-9.1914 8.5195-1.2891 1.9883-2.3047 4.1992-3.0039 6.5703-0.66406 2.25-1.0156 4.6562-1.0156 7.168 0 6.9922 2.8359 13.32 7.4102 17.902 4.582 4.582 10.91 7.4102 17.902 7.4102 6.9922 0 13.32-2.8359 17.902-7.4102 4.582-4.582 7.4102-10.91 7.4102-17.902 0-3.0977-0.55078-6.0664-1.5664-8.8008-1.0547-2.8477-2.6055-5.4492-4.5469-7.6992l0.007813-0.007812-0.007813-0.007813c-2.3711-2.7539-5.3125-4.9844-8.6445-6.5156zm18.762 104.61c0.67188 0.94141 0.91406 2.1758 0.55859 3.3711l-13.84 46.145-0.039063 0.12109c-0.90625 2.9219-0.71875 4.6836-0.027343 5.4688 0.11328 0.12891 0.25391 0.21484 0.39062 0.24219 0.20703 0.046875 0.4375 0.039062 0.69141-0.046875 1.0547-0.33594 2.1016-1.5781 2.5469-3.7891 0.046875-0.24219 0.11328-0.46484 0.20703-0.67969h-0.007813l13.066-32.461c9.6133-23.895 5.0977-38.586-3.6953-61.32-3.3789 2.3516-7.207 4.3945-11.359 5.9531-5.4805 2.0625-11.508 3.293-17.816 3.293-6.6719 0-13.047-1.3711-18.836-3.8555-4.2109-1.8008-8.1016-4.1914-11.582-7.0547l-9.2109 21.906 37.297 38.203 18.258-26.59c1.2148-1.7812 3.6406-2.2383 5.4219-1.0273 0.51172 0.34375 0.90625 0.79297 1.1953 1.2969l6.7852 10.816zm-20.766 47.281 13.336-44.465-2.8945-4.6094-17.586 25.609c-0.14063 0.21484-0.30859 0.41016-0.50391 0.59766-1.5391 1.5039-4.0117 1.4648-5.5156-0.074219l-42.422-43.457c-1.0547-1.0938-1.418-2.7422-0.79297-4.2266l12.301-29.23c0.19531-0.55859 0.52344-1.0742 0.98828-1.5117 1.5586-1.4844 4.0312-1.418 5.5156 0.14062 3.7148 3.9023 8.2148 7.0547 13.234 9.2109 4.8359 2.0703 10.164 3.2188 15.781 3.2188 5.3555 0 10.453-1.0352 15.062-2.7812 5.1055-1.9219 9.6328-4.7148 13.254-7.8945 0.33594-0.28906 0.71875-0.53125 1.1562-0.71094 2.0078-0.78516 4.2734 0.20703 5.0586 2.2109l0.027344 0.074219c10.688 27.383 16.969 43.477 5.5352 71.875l-12.953 32.191c-1.168 5.0859-4.3398 8.1836-7.7109 9.2695-1.6445 0.53125-3.3398 0.59766-4.9375 0.19531-1.6523-0.41016-3.1641-1.2969-4.3594-2.6602-2.3242-2.6328-3.4141-7.0273-1.5977-12.938l0.019531-0.054688z"/>
  <use x="70" y="560.140625" xlink:href="#w"/>
  <use x="70.035156" y="560.140625" xlink:href="#e"/>
  <use x="70.058594" y="560.140625" xlink:href="#b"/>
  <use x="70.089844" y="560.140625" xlink:href="#a"/>
  <use x="70.121094" y="560.140625" xlink:href="#d"/>
  <use x="70.144531" y="560.140625" xlink:href="#b"/>
  <use x="70.175781" y="560.140625" xlink:href="#l"/>
  <use x="70.222656" y="560.140625" xlink:href="#k"/>
  <use x="70.257812" y="560.140625" xlink:href="#j"/>
  <use x="70.304688" y="560.140625" xlink:href="#i"/>
  <use x="70.34375" y="560.140625" xlink:href="#v"/>
  <use x="70.359375" y="560.140625" xlink:href="#b"/>
  <use x="70.390625" y="560.140625" xlink:href="#f"/>
  <use x="70.425781" y="560.140625" xlink:href="#a"/>
  <use x="70.472656" y="560.140625" xlink:href="#h"/>
  <use x="70.507812" y="560.140625" xlink:href="#a"/>
  <use x="70.539062" y="560.140625" xlink:href="#f"/>
  <use x="70.570312" y="560.140625" xlink:href="#a"/>
  <use x="70.601562" y="560.140625" xlink:href="#g"/>
  <use x="70.628906" y="560.140625" xlink:href="#c"/>
  <use x="70.664062" y="560.140625" xlink:href="#u"/>
  <use x="70.691406" y="560.140625" xlink:href="#g"/>
  <use x="70.722656" y="560.140625" xlink:href="#t"/>
  <use x="70.75" y="560.140625" xlink:href="#a"/>
  <use x="70" y="560.1875" xlink:href="#s"/>
  <use x="70.019531" y="560.1875" xlink:href="#e"/>
  <use x="70.042969" y="560.1875" xlink:href="#c"/>
  <use x="70.074219" y="560.1875" xlink:href="#r"/>
  <use x="70.140625" y="560.1875" xlink:href="#d"/>
  <use x="70.164062" y="560.1875" xlink:href="#q"/>
  <use x="70.195312" y="560.1875" xlink:href="#b"/>
  <use x="70.242188" y="560.1875" xlink:href="#p"/>
  <use x="70.28125" y="560.1875" xlink:href="#c"/>
  <use x="70.316406" y="560.1875" xlink:href="#o"/>
  <use x="70.347656" y="560.1875" xlink:href="#f"/>
  <use x="70.398438" y="560.1875" xlink:href="#h"/>
  <use x="70.433594" y="560.1875" xlink:href="#e"/>
  <use x="70.453125" y="560.1875" xlink:href="#c"/>
  <use x="70.488281" y="560.1875" xlink:href="#n"/>
  <use x="70.503906" y="560.1875" xlink:href="#b"/>
  <use x="70.535156" y="560.1875" xlink:href="#m"/>
  <use x="70.5625" y="560.1875" xlink:href="#d"/>
 </g>
</svg>
